<mxfile host="app.diagrams.net" modified="2024-03-19T21:20:47.365Z" agent="Mozilla/5.0 (iPad; CPU OS 16_3 like Mac OS X) AppleWebKit/605.1.15 (KHTML, like Gecko) CriOS/122.0.6261.89 Mobile/15E148 Safari/604.1" etag="5wQESYSNMupvdvW6Nn_j" version="24.0.7" type="google">
  <diagram id="C5RBs43oDa-KdzZeNtuy" name="Page-1">
    <mxGraphModel grid="1" page="1" gridSize="10" guides="1" tooltips="1" connect="1" arrows="1" fold="1" pageScale="1" pageWidth="827" pageHeight="1169" math="0" shadow="0">
      <root>
        <mxCell id="WIyWlLk6GJQsqaUBKTNV-0" />
        <mxCell id="WIyWlLk6GJQsqaUBKTNV-1" parent="WIyWlLk6GJQsqaUBKTNV-0" />
        <mxCell id="VDj7Bf72O_zvzCqL81ow-0" value="&lt;font style=&quot;font-size: 12px;&quot;&gt;Inputs: %power, time (ms)&lt;/font&gt;" style="shape=parallelogram;perimeter=parallelogramPerimeter;whiteSpace=wrap;html=1;fixedSize=1;" vertex="1" parent="WIyWlLk6GJQsqaUBKTNV-1">
          <mxGeometry x="324" y="280" width="180" height="50" as="geometry" />
        </mxCell>
        <mxCell id="VDj7Bf72O_zvzCqL81ow-1" value="" style="endArrow=block;html=1;rounded=0;endFill=0;exitX=0.5;exitY=1;exitDx=0;exitDy=0;entryX=0.5;entryY=0;entryDx=0;entryDy=0;" edge="1" parent="WIyWlLk6GJQsqaUBKTNV-1" source="VDj7Bf72O_zvzCqL81ow-0" target="VDj7Bf72O_zvzCqL81ow-3">
          <mxGeometry width="50" height="50" relative="1" as="geometry">
            <mxPoint x="314" y="530" as="sourcePoint" />
            <mxPoint x="414" y="360" as="targetPoint" />
          </mxGeometry>
        </mxCell>
        <mxCell id="VDj7Bf72O_zvzCqL81ow-2" style="edgeStyle=orthogonalEdgeStyle;rounded=0;orthogonalLoop=1;jettySize=auto;html=1;exitX=0.5;exitY=0;exitDx=0;exitDy=0;entryX=0.5;entryY=0;entryDx=0;entryDy=0;endArrow=block;endFill=0;startArrow=block;startFill=0;" edge="1" parent="WIyWlLk6GJQsqaUBKTNV-1" source="VDj7Bf72O_zvzCqL81ow-13" target="VDj7Bf72O_zvzCqL81ow-5">
          <mxGeometry relative="1" as="geometry">
            <mxPoint x="414" y="480" as="targetPoint" />
            <Array as="points">
              <mxPoint x="535" y="460" />
              <mxPoint x="285" y="460" />
            </Array>
          </mxGeometry>
        </mxCell>
        <mxCell id="VDj7Bf72O_zvzCqL81ow-14" style="edgeStyle=orthogonalEdgeStyle;rounded=0;orthogonalLoop=1;jettySize=auto;html=1;exitX=0.5;exitY=1;exitDx=0;exitDy=0;endArrow=none;endFill=0;" edge="1" parent="WIyWlLk6GJQsqaUBKTNV-1" source="VDj7Bf72O_zvzCqL81ow-3">
          <mxGeometry relative="1" as="geometry">
            <mxPoint x="414" y="460" as="targetPoint" />
          </mxGeometry>
        </mxCell>
        <mxCell id="VDj7Bf72O_zvzCqL81ow-3" value="&lt;font style=&quot;font-size: 12px;&quot;&gt;Convert to voltage with convertPower()&lt;/font&gt;" style="shape=process;whiteSpace=wrap;html=1;backgroundOutline=1;" vertex="1" parent="WIyWlLk6GJQsqaUBKTNV-1">
          <mxGeometry x="344" y="370" width="140" height="70" as="geometry" />
        </mxCell>
        <mxCell id="VDj7Bf72O_zvzCqL81ow-4" style="edgeStyle=orthogonalEdgeStyle;rounded=0;orthogonalLoop=1;jettySize=auto;html=1;entryX=0.5;entryY=0;entryDx=0;entryDy=0;endArrow=block;endFill=0;exitX=0.474;exitY=1.038;exitDx=0;exitDy=0;exitPerimeter=0;" edge="1" parent="WIyWlLk6GJQsqaUBKTNV-1" source="VDj7Bf72O_zvzCqL81ow-5">
          <mxGeometry relative="1" as="geometry">
            <mxPoint x="280" y="550" as="sourcePoint" />
            <mxPoint x="414" y="580" as="targetPoint" />
            <Array as="points">
              <mxPoint x="280" y="560" />
              <mxPoint x="414" y="560" />
            </Array>
          </mxGeometry>
        </mxCell>
        <mxCell id="VDj7Bf72O_zvzCqL81ow-5" value="Power the left wheel motor at this voltage" style="shape=parallelogram;perimeter=parallelogramPerimeter;whiteSpace=wrap;html=1;fixedSize=1;" vertex="1" parent="WIyWlLk6GJQsqaUBKTNV-1">
          <mxGeometry x="190" y="480" width="210" height="60" as="geometry" />
        </mxCell>
        <mxCell id="VDj7Bf72O_zvzCqL81ow-6" style="edgeStyle=orthogonalEdgeStyle;rounded=0;orthogonalLoop=1;jettySize=auto;html=1;exitX=0.5;exitY=1;exitDx=0;exitDy=0;endArrow=block;endFill=0;" edge="1" parent="WIyWlLk6GJQsqaUBKTNV-1" source="VDj7Bf72O_zvzCqL81ow-7" target="VDj7Bf72O_zvzCqL81ow-9">
          <mxGeometry relative="1" as="geometry" />
        </mxCell>
        <mxCell id="VDj7Bf72O_zvzCqL81ow-7" value="Delay for input time" style="shape=process;whiteSpace=wrap;html=1;backgroundOutline=1;" vertex="1" parent="WIyWlLk6GJQsqaUBKTNV-1">
          <mxGeometry x="354" y="580" width="120" height="60" as="geometry" />
        </mxCell>
        <mxCell id="VDj7Bf72O_zvzCqL81ow-8" style="edgeStyle=orthogonalEdgeStyle;rounded=0;orthogonalLoop=1;jettySize=auto;html=1;exitX=0.5;exitY=1;exitDx=0;exitDy=0;entryX=0.5;entryY=0;entryDx=0;entryDy=0;endArrow=block;endFill=0;" edge="1" parent="WIyWlLk6GJQsqaUBKTNV-1" source="VDj7Bf72O_zvzCqL81ow-9" target="VDj7Bf72O_zvzCqL81ow-12">
          <mxGeometry relative="1" as="geometry" />
        </mxCell>
        <mxCell id="VDj7Bf72O_zvzCqL81ow-9" value="Turn motors off" style="shape=parallelogram;perimeter=parallelogramPerimeter;whiteSpace=wrap;html=1;fixedSize=1;" vertex="1" parent="WIyWlLk6GJQsqaUBKTNV-1">
          <mxGeometry x="341" y="680" width="146" height="60" as="geometry" />
        </mxCell>
        <mxCell id="VDj7Bf72O_zvzCqL81ow-10" style="edgeStyle=orthogonalEdgeStyle;rounded=0;orthogonalLoop=1;jettySize=auto;html=1;entryX=0.5;entryY=0;entryDx=0;entryDy=0;endArrow=block;endFill=0;" edge="1" parent="WIyWlLk6GJQsqaUBKTNV-1" source="VDj7Bf72O_zvzCqL81ow-11" target="VDj7Bf72O_zvzCqL81ow-0">
          <mxGeometry relative="1" as="geometry" />
        </mxCell>
        <mxCell id="VDj7Bf72O_zvzCqL81ow-11" value="Start" style="rounded=1;whiteSpace=wrap;html=1;arcSize=50;" vertex="1" parent="WIyWlLk6GJQsqaUBKTNV-1">
          <mxGeometry x="364.5" y="200" width="99" height="40" as="geometry" />
        </mxCell>
        <mxCell id="VDj7Bf72O_zvzCqL81ow-12" value="Finish" style="rounded=1;whiteSpace=wrap;html=1;arcSize=50;" vertex="1" parent="WIyWlLk6GJQsqaUBKTNV-1">
          <mxGeometry x="364.5" y="780" width="99" height="40" as="geometry" />
        </mxCell>
        <mxCell id="VDj7Bf72O_zvzCqL81ow-13" value="Power the right wheel motor at this voltage * offset (" style="shape=parallelogram;perimeter=parallelogramPerimeter;whiteSpace=wrap;html=1;fixedSize=1;" vertex="1" parent="WIyWlLk6GJQsqaUBKTNV-1">
          <mxGeometry x="440" y="480" width="190" height="60" as="geometry" />
        </mxCell>
        <mxCell id="VDj7Bf72O_zvzCqL81ow-15" value="" style="endArrow=none;html=1;rounded=0;entryX=0.5;entryY=1;entryDx=0;entryDy=0;" edge="1" parent="WIyWlLk6GJQsqaUBKTNV-1" target="VDj7Bf72O_zvzCqL81ow-13">
          <mxGeometry width="50" height="50" relative="1" as="geometry">
            <mxPoint x="535" y="560" as="sourcePoint" />
            <mxPoint x="450" y="490" as="targetPoint" />
          </mxGeometry>
        </mxCell>
        <mxCell id="VDj7Bf72O_zvzCqL81ow-16" value="" style="endArrow=none;html=1;rounded=0;" edge="1" parent="WIyWlLk6GJQsqaUBKTNV-1">
          <mxGeometry width="50" height="50" relative="1" as="geometry">
            <mxPoint x="414" y="560" as="sourcePoint" />
            <mxPoint x="534" y="560" as="targetPoint" />
          </mxGeometry>
        </mxCell>
      </root>
    </mxGraphModel>
  </diagram>
</mxfile>
